# xmcd CD database file
#
# Track frame offsets:
#	150
#	4062
#	20111
#	25431
#	31131
#	37096
#	48202
#	54661
#	61619
#	71953
#	77808
#	91426
#	97350
#	109955
#	115882
#	130459
#	138456
#	147436
#	153292
#	164242
#	172160
#	173284
#	175185
#	193766
#	198538
#
# Disc length: 2768 seconds
#
# Revision: 0
# Processed by: cddbd v1.5.2PL0 Copyright (c) Steve Scherf et al.
# Submitted via: CDex 1.51
#
DISCID=740ace19
DTITLE=Matze Music - Matze mit der blauen Tatze
DYEAR=2014
DGENRE=Jazz
TTITLE0=Matze hat 'ne Tatze
TTITLE1=Matze in New York
TTITLE2=Take Five
TTITLE3=Matze haut ab
TTITLE4=All Blues
TTITLE5=Matze findet einen Freund
TTITLE6=Watermelon Man - schnell
TTITLE7=Watermelon Man - langsam
TTITLE8=Am Fli- Fla- Flüsschen
TTITLE9=Minor Swing
TTITLE10=Das Swinguru kommt
TTITLE11=Sweet Georgia Brown
TTITLE12=Auf ans Meer!
TTITLE13=St. Thomas
TTITLE14=Die Affeninsel
TTITLE15=Cantaloupe Island
TTITLE16=Der Bossa Bär verliebt sich
TTITLE17=The Girl from Ipanema
TTITLE18=Wiedersehen mit Tante Trulla
TTITLE19=Work Song
TTITLE20=Eine eigene Band
TTITLE21=Matze ist nicht mehr allein
TTITLE22=Die große Show
TTITLE23=Der Schatz ist gefunden
TTITLE24=Zu Besuch bei Radio Jungle
EXTD=YEAR: 2014
EXTT0=
EXTT1=
EXTT2=
EXTT3=
EXTT4=
EXTT5=
EXTT6=
EXTT7=
EXTT8=
EXTT9=
EXTT10=
EXTT11=
EXTT12=
EXTT13=
EXTT14=
EXTT15=
EXTT16=
EXTT17=
EXTT18=
EXTT19=
EXTT20=
EXTT21=
EXTT22=
EXTT23=
EXTT24=
PLAYORDER=
